<svg width="12" height="11" viewBox="0 0 12 11" fill="none" xmlns="http://www.w3.org/2000/svg">
<path d="M2.43658 0H10.4063C11.2851 0 12 0.714903 12 1.59365V6.52732C12 7.40607 11.2851 8.12098 10.4064 8.12098H9.24854V10.6545C9.24854 10.7421 9.19611 10.8211 9.11546 10.8552C9.08809 10.8668 9.05926 10.8724 9.03067 10.8724C8.97502 10.8724 8.92026 10.8511 8.87877 10.8108L6.11094 8.12098H2.43658C1.55783 8.12098 0.842927 7.40607 0.842927 6.52732V1.59365C0.842927 0.714903 1.55783 0 2.43658 0ZM1.27875 6.52732C1.27875 7.16574 1.79814 7.68515 2.43658 7.68515H6.19939C6.25611 7.68515 6.31059 7.70727 6.35125 7.7468L8.81269 10.1389V7.90306C8.81269 7.78271 8.91025 7.68515 9.03061 7.68515H10.4063C11.0448 7.68515 11.5642 7.16574 11.5642 6.52732V1.59365C11.5642 0.955237 11.0448 0.435845 10.4064 0.435845H2.4366C1.79816 0.435845 1.27877 0.955237 1.27877 1.59365V6.52732H1.27875Z" fill="#BDBDBD"/>
</svg>
