<svg width="80" height="80" viewBox="0 0 80 80" fill="none" xmlns="http://www.w3.org/2000/svg">
<g clip-path="url(#clip0_107_4002)">
<path d="M0.711538 40C0.711538 18.3371 18.3371 0.711538 40 0.711538C61.6645 0.711538 79.2885 18.337 79.2885 40C79.2885 61.6613 61.6613 79.2885 40 79.2885C18.3371 79.2885 0.711538 61.6613 0.711538 40Z" fill="#343F24" stroke="#343F24" stroke-width="1.42308"/>
<path d="M49.5345 39.2318H43.0268C43.0268 49.629 43.0268 62.4269 43.0268 62.4269H33.3837C33.3837 62.4269 33.3837 49.7531 33.3837 39.2318H28.7998V31.034H33.3837V25.7315C33.3837 21.9339 35.1883 15.9998 43.1154 15.9998L50.2612 16.0271V23.9849C50.2612 23.9849 45.919 23.9849 45.0747 23.9849C44.2304 23.9849 43.03 24.4071 43.03 26.2181V31.0356H50.3772L49.5345 39.2318Z" fill="#FDFFFC"/>
</g>
<defs>
<clipPath id="clip0_107_4002">
<rect width="80" height="80" fill="white"/>
</clipPath>
</defs>
</svg>
