<svg width="36" height="36" viewBox="0 0 36 36" fill="none" xmlns="http://www.w3.org/2000/svg">
<g clip-path="url(#clip0_627_3578)">
<path d="M17.7872 21.3496C19.7498 21.3496 21.3498 19.7524 21.3498 17.7884C21.3498 17.0131 21.0962 16.2973 20.6763 15.7127C20.0292 14.8156 18.9774 14.2273 17.7894 14.2273C16.6007 14.2273 15.5495 14.8148 14.9011 15.7119C14.4798 16.2966 14.2283 17.0124 14.2275 17.7877C14.2254 19.7517 15.824 21.3496 17.7872 21.3496Z" fill="#FDFFFC"/>
<path d="M25.5638 13.4319V10.4468V10.0026L25.1174 10.004L22.1338 10.0133L22.1453 13.4433L25.5638 13.4319Z" fill="#FDFFFC"/>
<path d="M17.7885 0C7.97994 0 0 7.97994 0 17.7885C0 27.5963 7.97994 35.5769 17.7885 35.5769C27.5963 35.5769 35.5769 27.5963 35.5769 17.7885C35.5769 7.97994 27.5977 0 17.7885 0ZM27.9051 15.7127V23.9957C27.9051 26.1532 26.151 27.9065 23.995 27.9065H11.5819C9.42518 27.9065 7.67184 26.1532 7.67184 23.9957V15.7127V11.5826C7.67184 9.42589 9.42518 7.67255 11.5819 7.67255H23.9943C26.151 7.67255 27.9051 9.42589 27.9051 11.5826V15.7127Z" fill="#FDFFFC"/>
<path d="M23.3215 17.7883C23.3215 20.8385 20.8395 23.322 17.7878 23.322C14.7361 23.322 12.2548 20.8385 12.2548 17.7883C12.2548 17.0546 12.4009 16.3531 12.6618 15.7125H9.6416V23.9956C9.6416 25.066 10.5107 25.933 11.5805 25.933H23.9929C25.0612 25.933 25.9318 25.066 25.9318 23.9956V15.7125H22.9102C23.1732 16.3531 23.3215 17.0546 23.3215 17.7883Z" fill="#FDFFFC"/>
</g>
<defs>
<clipPath id="clip0_627_3578">
<rect width="35.5769" height="35.5769" fill="white"/>
</clipPath>
</defs>
</svg>
