<svg width="158" height="66" viewBox="0 0 158 66" fill="none" xmlns="http://www.w3.org/2000/svg">
<path d="M12.3628 27.199C9.64671 26.1673 7.86722 25.3232 7.11796 24.6667C6.3687 24.0102 5.90041 23.166 5.90041 22.3219C5.90041 21.384 6.3687 20.6337 7.30527 20.071C8.24185 19.5082 9.36574 19.1331 10.7706 19.1331C12.7374 19.1331 14.5169 19.6958 16.1091 20.9151C17.6076 22.0406 18.8251 23.635 19.668 25.6046C19.7617 25.7922 20.0427 25.9797 20.23 25.9797H20.511C20.8856 25.9797 21.1666 25.6984 21.1666 25.3232V17.7262C21.1666 17.3511 20.8856 17.0697 20.511 17.0697H20.0427C19.949 17.0697 19.7617 17.0697 19.668 17.1635C19.0124 17.6324 18.4505 17.9138 18.0759 17.9138C17.8886 17.9138 17.233 17.82 16.1091 17.7262C13.393 17.3511 11.4262 17.0697 10.3023 17.0697C7.30527 17.0697 4.87018 17.9138 2.90338 19.602C1.03023 21.2902 0 23.3536 0 25.7922C0 27.8555 0.655602 29.5438 1.87315 30.9506C3.18435 32.3575 5.7131 33.7643 9.74037 35.2649C12.8311 36.4842 14.8915 37.5159 15.8281 38.36C16.7647 39.2979 17.233 40.3296 17.233 41.5489C17.233 42.6744 16.7647 43.6123 15.7344 44.4564C14.7042 45.3005 13.4867 45.6756 12.0818 45.6756C8.05453 45.6756 4.49555 42.8619 1.59218 37.1407C1.49852 36.9532 1.3112 36.7656 1.03023 36.7656H0.749259C0.374629 36.7656 0.0936574 37.047 0.0936574 37.4221V47.0825C0.0936574 47.4576 0.374629 47.739 0.749259 47.739H1.21755C1.40486 47.739 1.49852 47.6452 1.59218 47.5514C2.24778 46.9887 3.09069 46.7073 4.12092 46.7073C4.77653 46.7073 5.90041 46.8949 7.49259 47.1763C9.08476 47.4576 10.6769 47.6452 12.2691 47.6452C14.9852 47.6452 17.4203 46.7073 19.5744 44.8315C21.7285 42.9557 22.8524 40.611 22.8524 37.8911C22.8524 35.5463 22.1031 33.5767 20.6983 31.8885C19.3871 30.2941 16.5774 28.6997 12.3628 27.199Z" fill="#343F24"/>
<path d="M99.4642 45.3005C99.4642 45.3005 99.4642 45.2067 99.4642 45.3005C99.4642 45.2067 99.3705 45.2067 99.3705 45.1129C97.4037 44.6439 96.0925 44.0812 95.5306 43.3309C94.9686 42.5806 94.594 41.2675 94.594 39.2979V17.7262C94.594 17.3511 94.313 17.0697 93.9384 17.0697H81.2947C81.2947 17.0697 81.2947 17.0697 81.201 17.0697L80.7327 17.1635V18.0076C80.7327 18.289 80.92 18.5703 81.201 18.6641C84.0107 19.2269 85.5092 20.6337 85.5092 22.8847V37.3283C85.5092 37.4221 85.5092 37.6097 85.4156 37.7035C84.1044 39.5793 82.9805 40.9861 81.9503 41.7365C80.8264 42.4868 79.5152 42.8619 78.0167 42.8619C76.2372 42.8619 74.8323 42.393 73.8021 41.5489C72.7718 40.611 72.3036 39.3917 72.3036 37.7973V17.7262C72.3036 17.3511 72.0226 17.0697 71.648 17.0697H59.0042C59.0042 17.0697 59.0042 17.0697 58.9105 17.0697L58.4423 17.1635V17.9138C58.4423 18.1952 58.6296 18.4765 58.9105 18.5703C60.4091 18.8517 61.533 19.3207 62.0949 19.9772C62.7505 20.7275 63.1251 21.853 63.1251 23.4474V38.5476C63.1251 41.3613 64.0617 43.5185 65.8412 45.1129C67.6207 46.7073 70.0558 47.4576 73.2401 47.4576C78.0167 47.4576 82.0439 45.1129 85.3219 40.3296H85.5092V41.2675C85.5092 41.3613 85.5092 41.4551 85.5092 41.5489V46.5197C85.5092 47.1763 85.9775 47.6452 86.6331 47.6452H88.7873H88.8809H98.8086C99.1832 47.6452 99.4642 47.3638 99.4642 46.9887V45.4881C99.4642 45.3943 99.4642 45.3943 99.4642 45.3005Z" fill="#343F24"/>
<path d="M53.1974 20.6338C50.3877 18.2891 46.9224 17.1636 42.7078 17.1636C38.0249 17.1636 34.0913 18.6642 31.0006 21.6655C27.8163 24.6668 26.2241 28.3246 26.2241 32.8265C26.2241 37.1408 27.7226 40.7986 30.8133 43.7061C33.904 46.6136 37.744 48.0205 42.3332 48.0205C45.8922 48.0205 49.0765 47.1764 51.8862 45.3943C54.415 43.7999 56.3818 41.6427 57.693 39.0166C57.8803 38.5477 57.5993 38.0787 57.1311 38.0787C56.9437 38.0787 56.7564 38.1725 56.5691 38.3601C53.7594 42.2993 50.2941 44.2689 46.1731 44.2689C43.1761 44.2689 40.6474 43.0496 38.6806 40.6111C36.6201 38.1725 35.6835 35.0775 35.6835 31.2321C35.6835 31.0445 35.6835 30.8569 35.6835 30.6693C35.6835 30.2942 35.9645 30.0128 36.3391 30.0128H57.412C57.7867 30.0128 58.0676 29.6376 58.0676 29.2625C57.5057 25.6985 55.8199 22.791 53.1974 20.6338ZM47.9526 28.2308H36.4328C36.0581 28.2308 35.7772 27.9494 35.7772 27.5743C35.9645 25.1357 36.6201 23.1661 37.6503 21.6655C38.7742 19.9773 40.2727 19.227 42.0522 19.227C43.8317 19.227 45.3302 20.0711 46.5478 21.7593C47.6717 23.2599 48.3273 25.2295 48.6082 27.5743C48.7019 27.9494 48.3273 28.2308 47.9526 28.2308Z" fill="#343F24"/>
<path d="M157.438 45.0191C154.535 44.5502 153.036 42.8619 153.036 40.142V17.7262C153.036 17.3511 152.755 17.0697 152.381 17.0697H150.414H125.126V17.1635C124.845 17.2573 124.564 17.4449 124.564 17.82V17.9138C124.564 18.1952 124.752 18.4765 125.126 18.5703C127.28 18.8517 128.311 19.9772 128.311 21.853C128.311 22.9785 127.936 24.3853 127.093 26.0735L122.223 35.8277C121.942 36.2966 121.286 36.2966 121.099 35.8277L114.637 23.2598C114.262 22.5095 114.075 21.853 114.075 21.2902C114.075 19.9772 114.918 19.0393 116.51 18.6641C116.791 18.5703 116.978 18.3828 116.978 18.0076V17.82C116.978 17.4449 116.697 17.1635 116.322 17.1635H98.6212C98.2466 17.1635 97.9656 17.4449 97.9656 17.82V17.9138C97.9656 18.1952 98.2465 18.4765 98.5275 18.5703C99.9324 18.7579 101.056 19.2269 101.993 19.9772C103.023 20.8213 104.241 22.5095 105.458 24.9481L116.697 47.3638C116.791 47.5514 117.072 47.739 117.259 47.739H118.196C118.477 47.739 118.664 47.6452 118.758 47.3638L129.528 25.5108C130.652 23.166 131.776 21.384 132.9 20.3523C134.024 19.3207 135.241 18.7579 136.74 18.5703H137.489C140.58 18.5703 143.108 20.8213 143.67 23.635C143.67 23.7288 143.67 23.9164 143.67 24.0102V24.8543V39.5793C143.67 41.4551 143.296 42.7681 142.64 43.5185C141.985 44.175 140.767 44.7377 138.894 45.1129C138.8 45.1129 138.707 45.2067 138.613 45.2067C138.613 45.3005 138.519 45.3943 138.426 45.4881V47.0825C138.426 47.4576 138.707 47.739 139.081 47.739H157.344C157.719 47.739 158 47.4576 158 47.0825V45.7694C158 45.3943 157.719 45.1129 157.438 45.0191Z" fill="#343F24"/>
<path d="M153.598 5.81498C153.598 9.00384 150.976 11.63 147.791 11.63C144.607 11.63 141.984 9.00384 141.984 5.81498C141.984 2.62612 144.607 0 147.791 0C150.976 0 153.598 2.62612 153.598 5.81498Z" fill="#343F24"/>
</svg>
