<svg width="25" height="25" viewBox="0 0 25 25" fill="none" xmlns="http://www.w3.org/2000/svg">
<path d="M8.625 12.5L8.625 8.5C8.625 6.29086 10.4159 4.5 12.625 4.5V4.5C14.8341 4.5 16.625 6.29086 16.625 8.5L16.625 12.5" stroke="#343F24" stroke-linecap="round"/>
<path d="M4.31935 13.1678C4.46442 11.4269 4.53696 10.5565 5.11105 10.0282C5.68513 9.5 6.5586 9.5 8.30553 9.5H16.9445C18.6914 9.5 19.5649 9.5 20.139 10.0282C20.713 10.5565 20.7856 11.4269 20.9307 13.1678L21.4445 19.3339C21.529 20.3474 21.5712 20.8542 21.2741 21.1771C20.977 21.5 20.4685 21.5 19.4514 21.5H5.7986C4.78155 21.5 4.27302 21.5 3.97592 21.1771C3.67882 20.8542 3.72105 20.3474 3.80551 19.3339L4.31935 13.1678Z" stroke="#343F24"/>
</svg>
