<svg width="25" height="25" viewBox="0 0 25 25" fill="none" xmlns="http://www.w3.org/2000/svg">
<path d="M8.75 12.5L8.75 8.5C8.75 6.29086 10.5409 4.5 12.75 4.5V4.5C14.9591 4.5 16.75 6.29086 16.75 8.5L16.75 12.5" stroke="#FDFFFC" stroke-linecap="round"/>
<path d="M4.44435 13.1678C4.58942 11.4269 4.66196 10.5565 5.23605 10.0282C5.81013 9.5 6.6836 9.5 8.43053 9.5H17.0695C18.8164 9.5 19.6899 9.5 20.264 10.0282C20.838 10.5565 20.9106 11.4269 21.0557 13.1678L21.5695 19.3339C21.654 20.3474 21.6962 20.8542 21.3991 21.1771C21.102 21.5 20.5935 21.5 19.5764 21.5H5.9236C4.90655 21.5 4.39802 21.5 4.10092 21.1771C3.80382 20.8542 3.84605 20.3474 3.93051 19.3339L4.44435 13.1678Z" stroke="#FDFFFC"/>
</svg>
