<svg width="42" height="42" viewBox="0 0 42 42" fill="none" xmlns="http://www.w3.org/2000/svg">
<path d="M35.1094 22.0019C34.3418 20.2094 33.0539 18.6871 31.279 17.472L31.8077 14.4737C31.8389 14.2968 31.7993 14.1184 31.6963 13.9712C31.6912 13.964 31.6856 13.9575 31.6803 13.9506C31.9121 13.5867 32.3129 13.1616 32.7041 12.7472C33.6506 11.7448 34.6292 10.7082 34.1766 9.68662C33.7159 8.64612 32.0773 8.01528 30.6974 7.77192C29.3173 7.52846 27.5612 7.56058 26.7719 8.38105C25.9977 9.18643 26.5629 10.4953 27.1094 11.7611C27.3353 12.2842 27.5665 12.8205 27.6599 13.2416C27.6525 13.2463 27.6449 13.2505 27.6377 13.2556C27.4906 13.3586 27.3924 13.5128 27.3612 13.6897L27.045 15.4831C26.3244 15.2643 25.5746 15.0857 24.8055 14.9508V13.4618C24.8055 13.0688 24.4855 12.7491 24.0921 12.7491H23.9843V9.57718C23.9843 8.30606 22.6992 7.31105 21.6213 6.70021C21.2933 6.51441 20.9033 6.51675 20.5777 6.70644C20.252 6.89619 20.0576 7.23458 20.0576 7.61155V9.53054C20.0576 9.76732 20.2495 9.95924 20.4863 9.95924C20.7231 9.95924 20.915 9.76732 20.915 9.53054V7.61155C20.915 7.4653 21.0713 7.37397 21.1986 7.44616C22.8764 8.39694 23.127 9.1894 23.127 9.57718V12.7491H20.915V11.5311C20.915 11.2944 20.7231 11.1024 20.4863 11.1024C20.2495 11.1024 20.0576 11.2944 20.0576 11.5311V12.7491H19.9498C19.5565 12.7491 19.2365 13.0688 19.2365 13.4618V14.7303C18.5053 14.7981 17.7827 14.9042 17.08 15.0468C16.7981 14.7355 16.4117 14.5314 15.9943 14.4761L15.7312 12.9853C15.6949 12.7807 15.5814 12.6023 15.4115 12.4831C15.2409 12.3634 15.0343 12.3176 14.8294 12.3538L14.763 12.3655L14.2469 9.43876C14.1651 8.97543 13.7215 8.66475 13.2583 8.74665L11.6716 9.02629C11.4472 9.0659 11.2516 9.19049 11.1209 9.3772C10.9901 9.56392 10.9399 9.79036 10.9795 10.0148L11.4955 12.9417L11.4292 12.9534C11.2245 12.9896 11.0462 13.1032 10.9269 13.2731C10.8073 13.4437 10.7614 13.6506 10.7977 13.8552L11.0608 15.3459C10.506 15.6353 10.1271 16.2093 10.1061 16.8582C10.0929 17.2679 10.0859 17.7442 10.0935 18.2514C8.83541 19.3228 7.88966 20.5833 7.28248 22.002C6.77914 23.1784 6.58031 24.8012 6.56505 26.0705C6.52619 28.4145 7.03038 31.5979 8.60423 33.3194C9.30965 34.091 10.1496 34.4822 11.1006 34.4822H13.934C14.1708 34.4822 14.3627 34.2903 14.3627 34.0535C14.3627 33.8168 14.1708 33.6249 13.934 33.6249H11.1006C9.4786 33.6249 8.53496 32.0377 8.03111 30.4957H34.3527C34.0219 31.4884 33.5941 32.2604 33.1548 32.7409C32.6186 33.3274 31.9916 33.6249 31.2912 33.6249H15.9345C15.6977 33.6249 15.5058 33.8168 15.5058 34.0535C15.5058 34.2903 15.6977 34.4822 15.9345 34.4822H31.2912C32.2422 34.4822 33.0821 34.091 33.7876 33.3194C34.4548 32.5895 34.9526 31.5098 35.3407 30.199C35.9743 28.0587 36.072 24.252 35.1094 22.0019ZM34.3211 22.3392C34.3898 22.4997 34.453 22.6717 34.5111 22.8531C33.4808 21.653 32.0409 20.6333 30.2567 19.8481L30.5671 18.0887C30.5805 18.0895 30.5939 18.0905 30.6072 18.0905C30.624 18.0905 30.6409 18.0899 30.6576 18.0886C32.3667 19.2257 33.5997 20.6544 34.3211 22.3392ZM30.9312 14.5069L30.4558 17.2036L27.8653 16.7469C27.8638 16.7466 27.8623 16.7461 27.8609 16.7459C27.8594 16.7456 27.8579 16.7456 27.8564 16.7453L27.6981 16.7174L28.1735 14.0207L30.9312 14.5069ZM28.1341 17.6649L29.7219 17.9448L29.4445 19.5173C28.9459 19.3278 28.43 19.1564 27.898 19.0043L28.1341 17.6649ZM27.39 8.97537C27.8337 8.51415 29.1327 8.36653 30.5486 8.61628C31.9643 8.86598 33.1338 9.44887 33.3928 10.0339C33.6144 10.5342 32.7641 11.4349 32.0808 12.1587C31.6016 12.6662 31.1441 13.1509 30.8748 13.6263L28.5279 13.2126C28.4375 12.6739 28.1734 12.062 27.8967 11.4212C27.5021 10.5073 27.0109 9.36977 27.39 8.97537ZM26.8952 16.3331L26.8216 16.7506C26.7904 16.9275 26.8299 17.106 26.9329 17.2531C27.0208 17.3786 27.146 17.4681 27.2906 17.5112L27.066 18.7857C26.3358 18.6088 25.5806 18.4657 24.8055 18.3579V15.8224C25.5238 15.9542 26.2239 16.1247 26.8952 16.3331ZM20.0939 13.6064H23.9481V18.2533C22.6646 18.1198 21.3842 18.0819 20.0939 18.1342V13.6064ZM19.2365 18.1836C18.9328 18.2058 18.6308 18.2318 18.3319 18.2642C18.0826 17.3647 17.7696 16.4944 17.5127 15.836C18.0769 15.73 18.6536 15.6482 19.2365 15.5919V18.1836ZM15.1358 14.5446L11.891 15.1167L11.6558 13.7841L14.9005 13.2118L15.1358 14.5446ZM11.8246 9.86997L13.4032 9.59164L13.9186 12.5144L12.3399 12.7928L11.8246 9.86997ZM10.963 16.8859C10.9769 16.4577 11.2932 16.0929 11.7149 16.0184L15.6089 15.3319C16.0352 15.2565 16.4544 15.4965 16.6122 15.8899C16.8653 16.5214 17.2035 17.4288 17.4723 18.3741C15.2971 18.6872 13.0391 19.3125 11.087 20.3576C10.9348 19.1489 10.9326 17.8354 10.963 16.8859ZM10.1356 19.3701C10.1658 19.8569 10.2134 20.3492 10.2855 20.8216C9.33417 21.4184 8.52805 22.0995 7.88223 22.8513C8.2204 21.7864 8.98275 20.4902 10.1356 19.3701ZM7.79176 29.6384C7.47422 28.2844 7.3394 26.6334 7.47457 25.0539C7.52023 24.9452 7.56767 24.8435 7.6159 24.7511C11.6447 17.0347 30.7586 17.0569 34.7758 24.7511C34.8248 24.845 34.8729 24.9482 34.9193 25.0589C35.0567 26.6621 34.912 28.3596 34.5987 29.6383H7.79176V29.6384Z" fill="#66833B"/>
<path d="M23.8622 22.4783H18.5317C18.1553 22.4783 17.8491 22.7845 17.8491 23.1608V25.1009C17.8491 25.4772 18.1553 25.7834 18.5317 25.7834H23.8622C24.2386 25.7834 24.5448 25.4772 24.5448 25.1009V23.1608C24.5448 22.7845 24.2386 22.4783 23.8622 22.4783ZM23.6874 24.9261H18.7065V23.3357H23.6874V24.9261Z" fill="#66833B"/>
</svg>
