<svg width="28" height="27" viewBox="0 0 28 27" fill="none" xmlns="http://www.w3.org/2000/svg">
<g clip-path="url(#clip0_627_3573)">
<path fill-rule="evenodd" clip-rule="evenodd" d="M21.9074 8.47105C21.9874 8.44605 22.0914 8.49605 22.1964 8.63405L26.9204 13.254C27.1964 13.529 27.1964 13.947 26.9204 14.151L22.1964 18.841C22.0914 18.98 21.9864 19.013 21.9074 18.971C21.8274 18.93 21.7774 18.808 21.7774 18.633V8.77205C21.7774 8.60105 21.8274 8.49605 21.9074 8.47205V8.47105ZM13.8274 0.774048H14.1624L14.4834 0.908048L19.3464 5.73605C19.5564 6.01205 19.4844 6.22005 19.1374 6.22005H17.1224C17.0404 6.21952 16.9592 6.23527 16.8833 6.26639C16.8075 6.29751 16.7386 6.34338 16.6807 6.40134C16.6227 6.45929 16.5768 6.52818 16.5457 6.60401C16.5146 6.67983 16.4988 6.76109 16.4994 6.84305V10.426C16.4994 10.773 16.2194 11.049 15.8014 11.049H12.2594C12.1772 11.0497 12.0957 11.0341 12.0196 11.003C11.9435 10.972 11.8743 10.9262 11.816 10.8683C11.7577 10.8104 11.7114 10.7415 11.6799 10.6655C11.6484 10.5896 11.6322 10.5082 11.6324 10.426V6.84405C11.6328 6.76178 11.6168 6.68026 11.5854 6.60423C11.554 6.5282 11.5077 6.45919 11.4494 6.4012C11.391 6.34322 11.3217 6.29743 11.2455 6.2665C11.1693 6.23557 11.0876 6.22012 11.0054 6.22105H8.85238C8.50537 6.22105 8.43337 6.01305 8.64237 5.73705L13.5104 0.908048L13.8274 0.774048ZM6.20937 8.36705C6.29737 8.40905 6.35137 8.53005 6.35137 8.70505V18.771C6.35137 18.946 6.29737 19.051 6.20937 19.084C6.12537 19.118 6.00437 19.084 5.86237 18.98L1.06637 14.152C0.790375 13.947 0.790375 13.529 1.06637 13.254L5.86237 8.49605C6.00437 8.35905 6.12537 8.32605 6.20937 8.36705ZM12.2614 16.29H15.8024C16.2204 16.29 16.5004 16.566 16.5004 16.912V20.705C16.5004 21.118 16.7764 21.394 17.1234 21.394H19.0014C19.3484 21.394 19.4864 21.599 19.2104 21.807L14.4854 26.565C14.3561 26.696 14.1804 26.7707 13.9964 26.773C13.8135 26.7707 13.6391 26.6959 13.5114 26.565L8.78737 21.807C8.50737 21.599 8.64437 21.394 8.99137 21.394H11.0074C11.3574 21.394 11.6344 21.118 11.6344 20.704V16.912C11.6344 16.566 11.9144 16.29 12.2614 16.29Z" fill="#828282"/>
</g>
<defs>
<clipPath id="clip0_627_3573">
<rect width="28" height="26" fill="white" transform="translate(0 0.774048)"/>
</clipPath>
</defs>
</svg>
