<svg width="19" height="18" viewBox="0 0 19 18" fill="none" xmlns="http://www.w3.org/2000/svg">
<g clip-path="url(#clip0_104_4548)">
<path d="M9.5 0C14.4705 0 18.5 4.02945 18.5 9C18.5 13.9706 14.4705 18 9.5 18C4.53177 17.9944 0.505624 13.9682 0.499999 9C0.499999 4.02945 4.52945 0 9.5 0ZM9.5 17.4C14.1392 17.4 17.9 13.6392 17.9 9C17.9 4.3608 14.1392 0.6 9.5 0.6C4.86301 0.605288 1.10529 4.36301 1.1 9C1.1 13.6392 4.8608 17.4 9.5 17.4Z" fill="#343F24"/>
<path d="M9.80005 5.39966L9.80005 12.5997C9.80005 12.7653 9.66572 12.8997 9.50005 12.8997C9.33437 12.8997 9.20005 12.7653 9.20005 12.5997L9.20005 5.39966C9.20005 5.23398 9.33437 5.09966 9.50005 5.09966C9.66572 5.09966 9.80005 5.23398 9.80005 5.39966Z" fill="#343F24"/>
<g clip-path="url(#clip1_104_4548)">
<path d="M5.90004 8.69995H13.1C13.2657 8.69995 13.4 8.83428 13.4 8.99995C13.4 9.16563 13.2657 9.29995 13.1 9.29995H5.90004C5.73436 9.29995 5.60004 9.16563 5.60004 8.99995C5.60004 8.83428 5.73436 8.69995 5.90004 8.69995Z" fill="#343F24"/>
</g>
</g>
<defs>
<clipPath id="clip0_104_4548">
<rect width="18" height="18" fill="white" transform="matrix(-1 0 0 1 18.5 0)"/>
</clipPath>
<clipPath id="clip1_104_4548">
<rect width="9" height="2" fill="white" transform="translate(5 8)"/>
</clipPath>
</defs>
</svg>
