<svg width="31" height="29" viewBox="0 0 31 29" fill="none" xmlns="http://www.w3.org/2000/svg">
<path d="M10 3.5C10 2.94772 9.55228 2.5 9 2.5C8.44772 2.5 8 2.94772 8 3.5L10 3.5ZM8.29289 26.2071C8.68342 26.5976 9.31658 26.5976 9.70711 26.2071L16.0711 19.8431C16.4616 19.4526 16.4616 18.8195 16.0711 18.4289C15.6805 18.0384 15.0474 18.0384 14.6569 18.4289L9 24.0858L3.34315 18.4289C2.95262 18.0384 2.31946 18.0384 1.92893 18.4289C1.53841 18.8195 1.53841 19.4526 1.92893 19.8431L8.29289 26.2071ZM8 3.5L8 25.5L10 25.5L10 3.5L8 3.5Z" fill="#343F24"/>
<path d="M24 25.5C24 26.0523 23.5523 26.5 23 26.5C22.4477 26.5 22 26.0523 22 25.5L24 25.5ZM22.2929 2.79289C22.6834 2.40237 23.3166 2.40237 23.7071 2.79289L30.0711 9.15685C30.4616 9.54738 30.4616 10.1805 30.0711 10.5711C29.6805 10.9616 29.0474 10.9616 28.6569 10.5711L23 4.91421L17.3431 10.5711C16.9526 10.9616 16.3195 10.9616 15.9289 10.5711C15.5384 10.1805 15.5384 9.54738 15.9289 9.15685L22.2929 2.79289ZM22 25.5L22 3.5L24 3.5L24 25.5L22 25.5Z" fill="#343F24"/>
</svg>
