<svg width="18" height="28" viewBox="0 0 18 28" fill="none" xmlns="http://www.w3.org/2000/svg">
<g clip-path="url(#clip0_627_3575)">
<path d="M17.2166 15.9936C17.216 15.9935 8.54169 14.0268 8.54169 14.0268C5.95621 13.4406 4.33433 10.8654 4.91924 8.27483C5.50451 5.68429 8.07487 4.05968 10.6603 4.6457C13.246 5.23195 14.8677 7.80712 14.2828 10.3975C13.9896 11.6944 13.199 12.7483 12.1578 13.4049C12.1576 13.4049 12.1551 13.4071 12.1541 13.4076C12.1235 13.4295 12.1037 13.4654 12.1037 13.5057C12.1037 13.5623 12.1426 13.6098 12.1953 13.6224C12.1954 13.6226 16.054 14.4968 16.0547 14.4968C16.1465 14.5177 16.2419 14.4822 16.2983 14.4075C16.2986 14.4068 16.2984 14.4073 16.2984 14.4073C17.3615 12.998 18 11.2395 18 9.33757C18 4.85841 14.5072 1.19793 10.1015 0.937937C10.0623 0.935762 9.82351 0.926417 9.74285 0.925266C7.79221 0.894584 5.81443 1.45497 4.09456 2.66172C-0.248722 5.70861 -1.30397 11.7059 1.73685 16.0573L9.45434 27.1C9.48731 27.145 9.54037 27.1741 9.59991 27.1741C9.65996 27.1741 9.7132 27.1445 9.74599 27.0991C9.74599 27.0991 17.3244 16.2711 17.325 16.2701C17.3444 16.2414 17.3559 16.2066 17.3559 16.1693C17.3559 16.0836 17.2965 16.0119 17.2166 15.9936Z" fill="#828282"/>
</g>
<defs>
<clipPath id="clip0_627_3575">
<rect width="18" height="26.4001" fill="white" transform="translate(0 0.774048)"/>
</clipPath>
</defs>
</svg>
