<svg width="28" height="27" viewBox="0 0 28 27" fill="none" xmlns="http://www.w3.org/2000/svg">
<g clip-path="url(#clip0_627_3570)">
<path d="M6.877 5.72404L17.75 2.77504L17.174 1.62004C16.9914 1.2583 16.6734 0.983284 16.2892 0.854814C15.9049 0.726345 15.4854 0.754817 15.122 0.934037L5.388 5.72404H6.877ZM21.125 2.86104C20.99 2.86104 20.855 2.87904 20.72 2.91604L18.166 3.60904L10.365 5.72304H23.079L22.601 3.98304C22.5121 3.65999 22.3195 3.37514 22.0528 3.17239C21.786 2.96963 21.46 2.86023 21.125 2.86104ZM24.672 6.78704H2.035C1.63015 6.7865 1.24152 6.94613 0.953936 7.23109C0.666353 7.51605 0.503169 7.9032 0.5 8.30804V25.254C0.5 26.094 1.186 26.774 2.031 26.774H24.67C25.516 26.774 26.202 26.094 26.202 25.254V21.011H17.114C16.426 21.0129 15.7654 20.7416 15.2774 20.2567C14.7893 19.7718 14.5136 19.113 14.511 18.425V15.042C14.511 14.342 14.792 13.707 15.249 13.242C15.491 12.9934 15.7805 12.796 16.1004 12.6616C16.4203 12.5272 16.764 12.4587 17.111 12.46H26.202V8.30804C26.2017 8.10774 26.1619 7.90947 26.0849 7.72459C26.0079 7.5397 25.8951 7.37184 25.753 7.23063C25.611 7.08942 25.4425 6.97764 25.2571 6.90169C25.0718 6.82574 24.8733 6.78712 24.673 6.78804L24.672 6.78704Z" fill="#828282"/>
<path d="M27.2809 13.914C26.9987 13.6569 26.6306 13.5146 26.2489 13.515H17.1179C16.2729 13.515 15.5869 14.196 15.5869 15.035V18.421C15.5869 19.261 16.2729 19.941 17.1179 19.941H26.2499C26.4239 19.941 26.5899 19.911 26.7459 19.86C26.9479 19.793 27.1289 19.683 27.2819 19.543C27.5879 19.267 27.7819 18.865 27.7819 18.421V15.036C27.782 14.8242 27.7375 14.6148 27.6514 14.4213C27.5652 14.2279 27.4393 14.0547 27.2819 13.913L27.2809 13.914ZM20.3159 17.031C20.3159 17.451 19.9729 17.791 19.5499 17.791H19.0419C18.9417 17.7914 18.8424 17.7721 18.7497 17.7341C18.657 17.6961 18.5726 17.6402 18.5015 17.5697C18.4304 17.4991 18.3738 17.4152 18.3351 17.3228C18.2964 17.2304 18.2763 17.1312 18.2759 17.031V16.526C18.2759 16.283 18.3889 16.066 18.5699 15.93C18.7049 15.8249 18.8708 15.7672 19.0419 15.766H19.5499C19.9729 15.766 20.3159 16.106 20.3159 16.526V17.031Z" fill="#828282"/>
</g>
<defs>
<clipPath id="clip0_627_3570">
<rect width="28" height="26" fill="white" transform="translate(0 0.774048)"/>
</clipPath>
</defs>
</svg>
