<svg width="25" height="25" viewBox="0 0 25 25" fill="none" xmlns="http://www.w3.org/2000/svg">
<path d="M4.51317 14.4082L11.4658 20.9395C11.7053 21.1644 11.825 21.2769 11.9662 21.3046C12.0298 21.3171 12.0952 21.3171 12.1588 21.3046C12.3 21.2769 12.4197 21.1644 12.6592 20.9395L19.6118 14.4082C21.568 12.5706 21.8055 9.5466 20.1603 7.42607L19.851 7.02734C17.8828 4.49058 13.9321 4.91601 12.5492 7.81365C12.3538 8.22296 11.7712 8.22296 11.5758 7.81365C10.1929 4.91601 6.24222 4.49058 4.27404 7.02735L3.96469 7.42607C2.31945 9.5466 2.557 12.5706 4.51317 14.4082Z" stroke="#343F24"/>
</svg>
