<svg width="25" height="25" viewBox="0 0 25 25" fill="none" xmlns="http://www.w3.org/2000/svg">
<path d="M5.13817 14.4082L12.0908 20.9395C12.3303 21.1644 12.45 21.2769 12.5912 21.3046C12.6548 21.3171 12.7202 21.3171 12.7838 21.3046C12.925 21.2769 13.0447 21.1644 13.2842 20.9395L20.2368 14.4082C22.193 12.5706 22.4305 9.5466 20.7853 7.42607L20.476 7.02734C18.5078 4.49058 14.5571 4.91601 13.1742 7.81365C12.9788 8.22296 12.3962 8.22296 12.2008 7.81365C10.8179 4.91601 6.86722 4.49058 4.89904 7.02735L4.58969 7.42607C2.94445 9.5466 3.182 12.5706 5.13817 14.4082Z" stroke="#FDFFFC"/>
</svg>
